<svg fill="none" height="24" viewBox="0 0 24 24" width="24" xmlns="http://www.w3.org/2000/svg"><g clip-rule="evenodd" fill="#47495f" fill-rule="evenodd"><path d="m3.49793 11c0-.8284.67158-1.5 1.5-1.5h8.85147c.8285 0 1.5.6716 1.5 1.5v5c0 .8284-.6715 1.5-1.5 1.5h-6.58576c-.09978 0-.19728.0299-.27996.0857l-2.70592 1.8286c-.15326.1035-.35116.114-.51451.0273-.16335-.0868-.26546-.2567-.26545-.4416zm1.5-.5c-.27614 0-.5.2239-.5.5l-.00009 7.0586 1.92594-1.3014c.24802-.1676.54051-.2572.83986-.2572h6.58576c.2762 0 .5-.2239.5-.5v-5c0-.2761-.2238-.5-.5-.5z"/><path d="m5.49994 6c0-1.38071 1.11929-2.5 2.5-2.5 1.20948 0 2.21836.85888 2.44996 2h7.55c.8285 0 1.5.67157 1.5 1.5v8.55c1.1412.2316 2 1.2405 2 2.45 0 1.3807-1.1192 2.5-2.5 2.5-1.3807 0-2.5-1.1193-2.5-2.5 0-1.2095.8589-2.2184 2-2.45v-8.55c0-.27614-.2238-.5-.5-.5h-7.55c-.2316 1.14112-1.24048 2-2.44996 2-1.38071 0-2.5-1.11929-2.5-2.5zm2.5-1.5c-.82842 0-1.5.67157-1.5 1.5s.67158 1.5 1.5 1.5c.82843 0 1.5-.67157 1.5-1.5s-.67157-1.5-1.5-1.5zm10.99996 12c-.8284 0-1.5.6716-1.5 1.5s.6716 1.5 1.5 1.5c.8285 0 1.5-.6716 1.5-1.5s-.6715-1.5-1.5-1.5z"/></g></svg>