<?xml version="1.0" encoding="UTF-8" standalone="no"?>
<svg
   version="1.1"
   width="317px"
   height="328px"
   style="shape-rendering:geometricPrecision; text-rendering:geometricPrecision; image-rendering:optimizeQuality; fill-rule:evenodd; clip-rule:evenodd"
   id="svg2"
   sodipodi:docname="GollnickData_Logo_with_text.svg"
   inkscape:version="1.3 (0e150ed6c4, 2023-07-21)"
   xmlns:inkscape="http://www.inkscape.org/namespaces/inkscape"
   xmlns:sodipodi="http://sodipodi.sourceforge.net/DTD/sodipodi-0.dtd"
   xmlns="http://www.w3.org/2000/svg"
   xmlns:svg="http://www.w3.org/2000/svg">
  <defs
     id="defs2" />
  <sodipodi:namedview
     id="namedview2"
     pagecolor="#505050"
     bordercolor="#eeeeee"
     borderopacity="1"
     inkscape:showpageshadow="0"
     inkscape:pageopacity="0"
     inkscape:pagecheckerboard="0"
     inkscape:deskcolor="#505050"
     inkscape:zoom="2"
     inkscape:cx="198.75"
     inkscape:cy="287.25"
     inkscape:window-width="1920"
     inkscape:window-height="1057"
     inkscape:window-x="3832"
     inkscape:window-y="-8"
     inkscape:window-maximized="1"
     inkscape:current-layer="svg2"
     showgrid="true">
    <inkscape:grid
       id="grid4"
       units="px"
       originx="0"
       originy="0"
       spacingx="1"
       spacingy="1"
       empcolor="#0099e5"
       empopacity="0.30196078"
       color="#0099e5"
       opacity="0.14901961"
       empspacing="5"
       dotted="false"
       gridanglex="30"
       gridanglez="30"
       visible="true" />
  </sodipodi:namedview>
  <g
     id="g1"
     transform="translate(1.169784,-27.947407)">
    <path
       style="opacity:1"
       fill="#2c2c54"
       d="m 191.64111,203.35278 c 0,-8.667 0,-17.333 0,-26 22.333,0 44.667,0 67,0 0.167,22.003 0,44.003 -0.5,66 -18.422,22.426 -37.589,44.26 -57.5,65.5 -28.667,0.667 -57.333,0.667 -86,0 -18.462198,-21.464 -37.295498,-42.631 -56.499998,-63.5 -0.6667,-41.667 -0.6667,-83.333 0,-125 9.4581,-45.4582 36.9581,-72.9582 82.499998,-82.5 40.705,-5.4391 73.871,7.7276 99.5,39.5 14.269,21.071 20.436,44.404 18.5,70 -22.333,0 -44.667,0 -67,0 3.328,-15.836 -0.672,-29.336 -12,-40.5 -17.34,-10.962 -33.507,-9.462 -48.5,4.5 -2.435,3.434 -4.435,7.1 -6,11 -1.131,17.291 -1.631,34.625 -1.5,52 0.167,15.667 0.333,31.333 0.5,47 10.931,12.854 22.098,25.521 33.5,38 11.323,-12.158 22.49,-24.491 33.5,-37 0.5,-6.325 0.666,-12.658 0.5,-19 z"
       id="path1" />
  </g>
  <g
     id="g2"
     transform="translate(2.319811,-25.094627)">
    <path
       style="opacity:1"
       fill="#bf5c36"
       d="m 190.5,174.5 c 0,8.667 0,17.333 0,26 -17.667,0 -35.333,0 -53,0 0,-8.667 0,-17.333 0,-26 17.667,0 35.333,0 53,0 z"
       id="path2" />
  </g>
  <text
     xml:space="preserve"
     style="font-style:normal;font-variant:normal;font-weight:normal;font-stretch:normal;font-size:29.3333px;font-family:'Roboto Slab';-inkscape-font-specification:'Roboto Slab';writing-mode:tb-rl;direction:rtl;fill:#f2f2f2;stroke-width:0.831496"
     x="-304.43445"
     y="266.62189"
     id="text2"
     transform="rotate(-90)"><tspan
       sodipodi:role="line"
       id="tspan2"
       x="-304.43445"
       y="266.62189"><tspan
         style="font-style:normal;font-variant:normal;font-weight:normal;font-stretch:normal;font-size:29.3333px;font-family:'Roboto Slab';-inkscape-font-specification:'Roboto Slab';fill:#2c2c54;fill-opacity:1"
         id="tspan3">gollnickdata.de</tspan><tspan
         style="font-style:normal;font-variant:normal;font-weight:normal;font-stretch:normal;font-size:29.3333px;font-family:'Roboto Slab';-inkscape-font-specification:'Roboto Slab';fill:#c05c37;fill-opacity:1"
         id="tspan4" /></tspan></text>
</svg>
