<?xml version="1.0" encoding="UTF-8" standalone="no"?>
<!-- Generator: Adobe Illustrator 27.5.0, SVG Export Plug-In . SVG Version: 6.00 Build 0)  -->

<svg
   version="1.1"
   x="0px"
   y="0px"
   viewBox="0 0 400 200"
   xml:space="preserve"
   id="svg109"
   sodipodi:docname="bert_ribbons.svg"
   inkscape:version="1.3 (0e150ed6c4, 2023-07-21)"
   width="400"
   height="200"
   xmlns:inkscape="http://www.inkscape.org/namespaces/inkscape"
   xmlns:sodipodi="http://sodipodi.sourceforge.net/DTD/sodipodi-0.dtd"
   xmlns="http://www.w3.org/2000/svg"
   xmlns:svg="http://www.w3.org/2000/svg"><defs
   id="defs109" /><sodipodi:namedview
   id="namedview109"
   pagecolor="#505050"
   bordercolor="#eeeeee"
   borderopacity="1"
   inkscape:showpageshadow="0"
   inkscape:pageopacity="0"
   inkscape:pagecheckerboard="0"
   inkscape:deskcolor="#505050"
   inkscape:zoom="1.01625"
   inkscape:cx="400"
   inkscape:cy="400"
   inkscape:window-width="1920"
   inkscape:window-height="1009"
   inkscape:window-x="1912"
   inkscape:window-y="-8"
   inkscape:window-maximized="1"
   inkscape:current-layer="svg109" />&#10;&#10;<g
   id="Objects"
   transform="translate(-43.296433,-296.18696)">&#10;	<g
   id="g109">&#10;		<g
   id="g81">&#10;			<g
   id="g80">&#10;				<g
   id="g40">&#10;					<g
   id="g3">&#10;						<g
   id="g2">&#10;							<g
   id="g1">&#10;								<path
   style="clip-rule:evenodd;fill:#ffffff;fill-rule:evenodd"
   d="m 91.502,380.961 c 0.238,-0.103 0.669,0.197 1.383,1.136 2.203,2.893 3.256,6.448 4.381,9.913 1.829,5.649 1.193,5.517 3.702,9.48 -0.312,-0.365 1.915,5.467 2.249,7.517 1.202,5.642 1.285,4.211 2.485,8.257 0.631,2.151 -0.219,2.859 1.073,4.992 1.086,1.783 1.897,4.233 2.522,6.079 2.67,7.901 4.958,14.696 7.591,23.26 0,0 -2.696,-2.119 -2.979,-2.52 -0.775,-1.108 -0.725,-2.306 -1.147,-3.614 -1.096,-3.415 -1.801,-7.323 -3.188,-10.634 -3.247,-7.721 -5.31,-15.88 -7.685,-23.906 -1.203,-4.079 -2.489,-8.143 -4.037,-12.104 -1.639,-4.164 -3.577,-8.116 -5.06,-12.347 -0.325,-0.946 -2.046,-5.18 -1.29,-5.509 z"
   id="path1" />&#10;							</g>&#10;						</g>&#10;					</g>&#10;					<g
   id="g6">&#10;						<g
   id="g5">&#10;							<g
   id="g4">&#10;								<path
   style="clip-rule:evenodd;fill:#ffffff;fill-rule:evenodd"
   d="m 393.738,380.76 c 0.256,0.039 0.454,0.548 0.54,1.794 0.271,3.845 -0.816,7.648 -1.832,11.393 -1.669,6.104 -2.125,5.612 -2.333,10.593 -0.04,-0.504 -1.584,5.969 -2.532,7.969 -2.342,5.676 -1.435,4.465 -2.877,8.724 -0.784,2.256 -1.883,2.362 -2.141,4.993 -0.201,2.207 -1.052,4.823 -1.687,6.799 -2.727,8.454 -5.217,15.678 -8.7,24.568 0,0 -0.73,-3.508 -0.692,-4.022 0.113,-1.423 0.912,-2.4 1.415,-3.772 1.325,-3.571 3.219,-7.338 4.186,-11.028 2.225,-8.61 5.506,-16.91 8.29,-25.363 1.423,-4.29 2.713,-8.636 3.704,-13.048 1.014,-4.649 1.631,-9.279 2.72,-13.915 0.259,-1.03 1.12,-5.806 1.939,-5.685 z"
   id="path3" />&#10;							</g>&#10;						</g>&#10;					</g>&#10;					<g
   id="g9">&#10;						<g
   id="g8">&#10;							<g
   id="g7">&#10;								<path
   style="clip-rule:evenodd;fill:#ffffff;fill-rule:evenodd"
   d="m 395.127,380.401 c -0.076,0.252 -1.835,-0.355 -6.197,-2.317 -13.449,-5.991 -27.547,-12.559 -41.999,-17.788 -2.948,-1.039 -5.487,-2.005 -7.757,-2.764 -2.273,-0.752 -4.241,-1.403 -5.992,-1.983 -0.875,-0.291 -1.696,-0.565 -2.474,-0.823 -0.785,-0.234 -1.527,-0.455 -2.235,-0.666 -1.42,-0.416 -2.708,-0.793 -3.953,-1.157 -1.249,-0.352 -2.45,-0.706 -3.712,-1.016 -1.268,-0.283 -2.583,-0.577 -4.033,-0.901 -1.455,-0.299 -3.046,-0.626 -4.864,-0.999 -1.827,-0.329 -3.893,-0.643 -6.271,-1.023 0.469,0.055 -0.786,-0.236 -3.065,-0.737 -2.284,-0.477 -5.613,-1.049 -9.255,-1.73 -3.651,-0.63 -7.647,-1.193 -11.25,-1.766 -3.619,-0.456 -6.851,-0.886 -8.986,-1.222 -11.992,-1.486 -16.653,-1.574 -20.489,-1.775 -1.923,-0.018 -3.646,-0.035 -6.002,-0.057 -1.177,-0.017 -2.512,-0.035 -4.109,-0.058 -1.597,0.011 -3.456,0.023 -5.68,0.038 -4.727,-0.036 -7.522,-0.085 -10.427,-0.186 -2.905,-0.114 -5.91,0.023 -11.015,0.692 -8.522,1.209 -19.334,2.53 -27.42,4.071 -17.341,3.036 -33.176,7.362 -48.928,12.825 l -2.961,1.018 c -0.978,0.37 -1.957,0.741 -2.938,1.113 -1.962,0.743 -3.931,1.488 -5.911,2.238 -1.957,0.807 -3.924,1.619 -5.905,2.436 -1.98,0.817 -3.977,1.633 -5.947,2.553 -1.981,0.895 -3.977,1.797 -5.993,2.707 -2.005,0.931 -3.994,1.945 -6.023,2.927 -4.081,1.922 -8.093,4.187 -12.28,6.366 0.011,-0.009 2.382,-1.801 4.976,-3.76 2.589,-1.993 5.492,-3.975 6.354,-4.476 2.375,-1.364 4.649,-2.575 7.072,-3.572 2.408,-1.029 4.875,-2.038 7.54,-3.235 14.017,-6.067 30.041,-11.022 44.644,-15.171 2.12,-0.653 4.274,-1.185 6.425,-1.734 2.154,-0.537 4.299,-1.12 6.466,-1.606 4.346,-0.924 8.68,-1.941 13.074,-2.656 8.751,-1.645 17.615,-2.673 26.488,-3.481 17.769,-1.409 35.661,-1.323 53.336,0.405 17.983,1.624 35.804,4.908 53.312,9.256 18.372,4.703 36.164,10.457 53.442,18.578 0.956,0.467 2.818,1.239 4.977,2.341 2.163,1.094 4.692,2.374 7.108,3.596 4.749,2.606 8.972,5.102 8.857,5.499 z"
   id="path6" />&#10;							</g>&#10;						</g>&#10;					</g>&#10;					<g
   id="g12">&#10;						<g
   id="g11">&#10;							<g
   id="g10">&#10;								<path
   style="clip-rule:evenodd;fill:#ffffff;fill-rule:evenodd"
   d="m 372.625,455.466 c -0.149,-0.023 -0.09,-0.457 -0.038,-1.414 0.047,-0.948 0.071,-2.456 -0.556,-4.439 -0.977,-3.066 -3.02,-5.629 -5.576,-7.578 -2.551,-1.977 -5.535,-3.451 -8.603,-4.892 -3.103,-1.379 -6.206,-2.798 -9.308,-4.233 -3.143,-1.337 -6.336,-2.572 -9.493,-3.861 -1.279,-0.543 -2.507,-0.963 -3.658,-1.357 -1.148,-0.402 -2.219,-0.776 -3.223,-1.128 -2.006,-0.71 -3.744,-1.325 -5.289,-1.871 -3.142,-0.942 -5.504,-1.65 -7.713,-2.312 -1.109,-0.314 -2.176,-0.635 -3.299,-0.906 -1.129,-0.247 -2.302,-0.49 -3.599,-0.744 -1.298,-0.242 -2.718,-0.508 -4.341,-0.81 -0.812,-0.143 -1.674,-0.295 -2.597,-0.457 -0.928,-0.136 -1.924,-0.249 -2.987,-0.385 0.42,0.033 -0.702,-0.199 -2.738,-0.593 -2.042,-0.363 -4.973,-1.032 -8.243,-1.451 -1.63,-0.241 -3.332,-0.493 -5.028,-0.744 -1.697,-0.246 -3.381,-0.538 -4.996,-0.692 -3.223,-0.368 -6.103,-0.719 -8.005,-1.002 -5.335,-0.642 -9.051,-0.895 -11.844,-1.154 -2.798,-0.204 -4.688,-0.211 -6.398,-0.263 -1.711,-0.031 -3.244,-0.058 -5.339,-0.095 -2.096,-0.002 -4.753,-0.003 -8.713,-0.006 -4.206,-0.072 -6.695,-0.161 -9.279,-0.298 -2.582,-0.102 -5.263,-0.178 -9.811,0.439 -1.901,0.242 -3.931,0.463 -6.021,0.667 -2.087,0.235 -4.232,0.476 -6.368,0.716 -2.136,0.225 -4.262,0.449 -6.309,0.665 -2.043,0.255 -4.007,0.5 -5.823,0.727 -15.524,2.038 -29.998,4.211 -44.112,8.668 -7.03,2.26 -13.951,5.129 -20.543,9.04 -6.6,3.881 -12.702,9.073 -17.781,15.604 0.003,-0.005 0.313,-0.568 0.802,-1.456 0.249,-0.447 0.542,-0.974 0.861,-1.546 0.322,-0.574 0.659,-1.209 1.082,-1.793 0.817,-1.19 1.654,-2.474 2.422,-3.488 0.8,-0.979 1.459,-1.76 1.77,-2.086 3.5,-3.512 7.312,-5.747 11.899,-8.268 5.985,-3.359 12.715,-5.962 19.559,-7.97 6.847,-2.028 13.802,-3.543 20.422,-4.93 30.938,-6.162 62.996,-8.061 94.49,-5.444 16.004,1.334 31.933,3.863 47.543,7.662 16.423,4.006 32.174,9.352 47.379,17.228 0.837,0.485 2.447,1.395 4.217,2.813 0.882,0.708 1.797,1.549 2.64,2.514 0.854,0.976 1.597,2.089 2.18,3.25 1.188,2.317 1.612,4.878 1.396,6.741 -0.182,1.884 -0.857,2.966 -1.031,2.932 z"
   id="path9" />&#10;							</g>&#10;						</g>&#10;					</g>&#10;					<g
   id="g15">&#10;						<g
   id="g14">&#10;							<g
   id="g13">&#10;								<path
   style="clip-rule:evenodd;fill:#ffffff;fill-rule:evenodd"
   d="m 373.512,447.071 c 0.13,-0.008 0.247,0.208 0.34,0.752 0.061,0.275 0.077,0.626 0.042,1.067 10e-4,0.451 -0.11,0.97 -0.258,1.597 -0.52,1.915 -1.741,3.657 -3.243,5.053 -1.509,1.41 -3.341,2.449 -5.269,3.214 -1.92,0.77 -4.037,1.193 -6.06,1.343 -2.038,0.176 -4.06,0.172 -6.045,0.141 -6.442,-0.178 -9.385,-0.107 -11.92,0.449 -1.243,0.272 -2.38,0.691 -3.644,1.422 -1.236,0.743 -2.713,1.76 -4.063,3.58 0.133,-0.18 -0.35,0.204 -0.998,1.063 -0.639,0.854 -1.424,2.216 -1.685,3.834 -0.229,1.615 0.066,3.44 0.888,4.87 0.76,1.467 1.916,2.529 2.666,3.221 2.227,1.862 4.264,2.555 5.736,2.972 0.749,0.189 1.4,0.288 1.979,0.355 0.575,0.092 1.08,0.114 1.56,0.122 0.959,0.049 1.822,-0.014 2.992,-0.103 1.171,-0.116 2.654,-0.29 4.84,-0.778 2.315,-0.541 3.728,-0.806 5.192,-1.124 1.444,-0.367 2.933,-0.84 5.189,-2.234 3.764,-2.322 8.639,-5.055 12.471,-6.926 4.084,-1.996 8.193,-3.757 12.543,-4.607 4.326,-0.85 8.884,-0.779 13.125,0.765 4.183,1.579 7.963,4.369 10.714,8.137 2.753,3.732 4.635,8.447 4.606,13.599 0,0 -0.135,-0.391 -0.346,-1.001 -0.105,-0.296 -0.23,-0.644 -0.365,-1.021 -0.167,-0.362 -0.346,-0.753 -0.53,-1.152 -0.326,-0.79 -0.844,-1.542 -1.175,-2.166 -0.385,-0.613 -0.719,-1.074 -0.824,-1.293 -1.274,-2.331 -2.053,-4.551 -3.873,-6.778 -1.212,-1.409 -2.584,-2.735 -4.118,-3.901 -1.537,-1.163 -3.266,-2.096 -5.081,-2.795 -3.633,-1.407 -7.749,-1.49 -11.401,-0.699 -4.29,0.961 -8.368,2.774 -12.389,4.766 -4.024,1.998 -8.001,4.22 -12.167,6.191 -4.157,1.961 -8.534,3.721 -13.202,4.491 -2.326,0.381 -4.716,0.5 -7.074,0.253 -2.34,-0.232 -4.73,-0.833 -6.843,-1.933 -2.147,-1.106 -4.141,-2.649 -5.487,-4.74 -0.672,-1.036 -1.17,-2.199 -1.425,-3.417 -0.271,-1.218 -0.23,-2.486 -0.015,-3.7 0.47,-2.452 1.893,-4.577 3.626,-6.225 1.749,-1.66 3.829,-2.912 6.059,-3.786 2.367,-0.923 4.857,-1.29 7.295,-1.514 2.448,-0.212 4.878,-0.239 7.27,-0.306 2.391,-0.068 4.751,-0.178 7.042,-0.539 2.246,-0.358 4.44,-1.074 6.445,-2.15 0.455,-0.226 1.27,-0.733 2.182,-1.416 0.892,-0.705 1.839,-1.63 2.554,-2.634 1.53,-1.985 1.696,-4.291 2.144,-4.319 z"
   id="path12" />&#10;							</g>&#10;						</g>&#10;					</g>&#10;					<g
   id="g18">&#10;						<g
   id="g17">&#10;							<g
   id="g16">&#10;								<path
   style="clip-rule:evenodd;fill:#ffffff;fill-rule:evenodd"
   d="m 340.476,429.021 c 0.238,0.101 0.373,0.523 0.331,1.433 -0.126,2.801 -1.429,5.209 -2.556,7.681 -1.807,4.026 -2.222,3.627 -2.397,7.177 -0.072,-0.377 -1.415,4.059 -2.18,5.413 -1.926,3.87 -1.103,3.091 -2.118,6.066 -0.515,1.586 -1.61,1.615 -1.504,3.52 0.089,1.586 -0.272,3.445 -0.42,4.865 -0.323,3.028 -0.151,5.879 0.832,8.49 0.971,2.583 2.718,5.039 5.439,6.313 0,0 -0.158,0.055 -0.403,0.139 -0.25,0.08 -0.606,0.188 -0.976,0.246 -0.754,0.153 -1.611,0.141 -1.813,0.079 -1.111,-0.367 -1.489,-1.37 -2.155,-2.247 -0.896,-1.171 -1.475,-2.609 -1.895,-4.044 -0.401,-1.444 -0.643,-2.916 -0.895,-4.306 -0.62,-3.282 -0.091,-6.63 0.751,-9.699 0.859,-3.08 1.958,-6.037 3.057,-8.999 1.118,-3.006 2.28,-5.989 3.263,-9.036 1.031,-3.203 1.829,-6.449 3.253,-9.527 0.307,-0.69 1.623,-3.888 2.386,-3.564 z"
   id="path15" />&#10;							</g>&#10;						</g>&#10;					</g>&#10;					<g
   id="g21">&#10;						<g
   id="g20">&#10;							<g
   id="g19">&#10;								<path
   style="clip-rule:evenodd;fill:#ffffff;fill-rule:evenodd"
   d="m 113.009,444.408 c 0.122,-0.044 0.321,0.151 0.611,0.633 0.148,0.24 0.308,0.556 0.511,0.941 0.228,0.378 0.488,0.83 0.779,1.361 1.963,3.19 4.431,6.047 7.486,8.236 3.015,2.198 6.582,3.788 10.318,4.153 1.511,0.184 2.87,0.136 4.073,0.086 1.205,-0.059 2.262,-0.148 3.209,-0.222 1.895,-0.153 3.347,-0.25 4.713,-0.288 1.362,-0.031 2.666,-0.057 4.264,0.112 0.801,0.075 1.678,0.211 2.679,0.452 0.998,0.248 2.129,0.606 3.372,1.287 -0.262,-0.105 0.398,0.265 1.39,1.232 0.986,0.938 2.238,2.685 2.609,4.904 0.417,2.208 -0.114,4.613 -1.036,6.452 -0.921,1.86 -2.156,3.24 -3.075,4.007 -1.251,1.107 -2.496,1.853 -3.584,2.318 -0.548,0.229 -1.028,0.484 -1.505,0.637 -0.475,0.156 -0.91,0.299 -1.312,0.431 -0.807,0.246 -1.506,0.36 -2.107,0.52 -0.613,0.097 -1.145,0.182 -1.651,0.262 -0.505,0.098 -0.99,0.095 -1.502,0.15 -0.513,0.057 -1.054,0.076 -1.679,0.058 -0.313,-0.004 -0.646,-0.008 -1.008,-0.013 -0.359,-0.033 -0.745,-0.068 -1.166,-0.107 -0.845,-0.06 -1.809,-0.247 -2.96,-0.466 -2.431,-0.541 -3.739,-1.27 -5.098,-1.915 -1.355,-0.671 -2.752,-1.295 -5.29,-2.1 -2.126,-0.665 -4.447,-1.689 -6.691,-2.729 -2.253,-1.034 -4.469,-2.074 -6.411,-2.865 -4.142,-1.694 -8.305,-3.013 -12.488,-3.227 -2.082,-0.112 -4.154,0.037 -6.145,0.522 -1.983,0.513 -3.869,1.34 -5.6,2.444 -3.494,2.196 -6.188,5.571 -8.464,9.292 -2.251,3.771 -4.066,7.981 -5.845,12.485 0,0 0.094,-1.587 0.266,-3.306 0.16,-1.722 0.418,-3.581 0.571,-4.081 0.821,-2.754 2.334,-4.825 3.979,-7.403 2.145,-3.371 5.12,-6.595 8.828,-8.776 1.863,-1.065 3.871,-1.854 5.921,-2.363 2.061,-0.482 4.145,-0.642 6.17,-0.645 4.76,0.016 9.332,1.446 13.613,3.167 4.298,1.729 8.339,3.978 12.386,5.855 4.071,1.864 8.277,3.449 12.622,4.148 2.168,0.325 4.366,0.406 6.511,0.113 2.142,-0.284 4.232,-0.974 6.113,-2.019 1.876,-1.067 3.446,-2.71 4.546,-4.59 1.067,-1.892 1.608,-4.121 1.168,-6.212 -0.233,-1.035 -0.706,-2.013 -1.362,-2.856 -0.66,-0.843 -1.519,-1.53 -2.465,-2.072 -1.904,-1.082 -4.143,-1.585 -6.362,-1.674 -4.721,-0.153 -9.412,1.442 -14.517,1.081 -5.074,-0.348 -9.973,-2.62 -13.663,-6.205 -0.388,-0.422 -1.199,-1.155 -1.999,-2.194 -0.846,-1.001 -1.671,-2.304 -2.356,-3.597 -0.318,-0.66 -0.604,-1.318 -0.842,-1.933 -0.201,-0.632 -0.387,-1.21 -0.503,-1.713 -0.181,-1.024 -0.216,-1.699 -0.022,-1.768 z"
   id="path18" />&#10;							</g>&#10;						</g>&#10;					</g>&#10;					<g
   id="g24">&#10;						<g
   id="g23">&#10;							<g
   id="g22">&#10;								<path
   style="clip-rule:evenodd;fill:#ffffff;fill-rule:evenodd"
   d="m 146.212,425.13 c 0.234,-0.109 0.613,0.019 1.199,0.534 1.816,1.588 2.459,3.834 3.136,6.002 1.095,3.546 0.49,3.517 2.393,5.892 -0.247,-0.214 1.119,3.444 1.131,4.774 0.334,3.619 0.62,2.675 1.151,5.255 0.264,1.375 -0.664,1.861 0.225,3.197 0.759,1.118 1.119,2.687 1.398,3.868 1.185,5.057 2.07,9.446 2.795,14.99 0,0 -2.171,-1.497 -2.359,-1.757 -0.513,-0.732 -0.219,-1.474 -0.359,-2.311 -0.353,-2.18 -0.278,-4.662 -0.995,-6.776 -1.699,-4.909 -2.307,-10.051 -3.414,-15.118 -0.552,-2.572 -1.243,-5.122 -2.218,-7.567 -1.053,-2.564 -2.436,-4.927 -3.406,-7.512 -0.205,-0.583 -1.426,-3.12 -0.677,-3.471 z"
   id="path21" />&#10;							</g>&#10;						</g>&#10;					</g>&#10;					<g
   id="g27">&#10;						<g
   id="g26">&#10;							<g
   id="g25">&#10;								<path
   style="clip-rule:evenodd;fill:#ffffff;fill-rule:evenodd"
   d="m 74.802,491.842 c -0.258,-0.015 -0.518,-0.42 -0.759,-1.432 -0.742,-3.119 -0.178,-6.29 0.261,-9.427 0.716,-5.112 1.235,-4.767 0.599,-8.827 0.137,0.405 0.514,-5.007 1.036,-6.743 0.603,-2.44 0.712,-3.374 0.73,-4.157 0,-0.773 -10e-4,-1.386 -0.002,-3.176 -0.001,-0.94 0.207,-1.518 0.318,-2.131 0.11,-0.605 0.114,-1.265 -0.458,-2.19 -0.926,-1.535 -1.956,-3.393 -2.971,-4.688 -2.146,-2.776 -4.823,-4.758 -7.756,-6.367 -2.945,-1.617 -6.174,-2.864 -9.805,-4.26 0,0 2.99,-0.937 3.433,-0.919 1.207,0.033 1.978,0.788 3.093,1.265 2.942,1.254 5.792,3.358 8.472,5.16 3.144,2.091 5.798,5.276 6.924,9.12 0.574,1.916 0.707,3.896 0.631,5.791 -0.076,1.901 -0.35,3.741 -0.621,5.548 -0.556,3.664 -1.064,7.338 -1.303,11.034 -0.251,3.888 -0.156,7.729 -0.626,11.607 -0.103,0.866 -0.375,4.838 -1.196,4.792 z"
   id="path24" />&#10;							</g>&#10;						</g>&#10;					</g>&#10;					<g
   id="g30">&#10;						<g
   id="g29">&#10;							<g
   id="g28">&#10;								<path
   style="clip-rule:evenodd;fill:#ffffff;fill-rule:evenodd"
   d="m 57.84,438.394 c -0.247,-0.077 -0.411,-0.474 -0.41,-1.395 10e-4,-0.71 0.085,-1.412 0.229,-2.102 0.137,-0.693 0.435,-1.327 0.712,-1.974 0.296,-0.638 0.604,-1.278 0.968,-1.885 l 1.181,-1.764 c 0.617,-0.969 1.175,-1.608 1.628,-2.112 0.446,-0.509 0.787,-0.885 1.077,-1.258 0.566,-0.761 1.037,-1.403 1.782,-3.114 -0.023,0.096 0.148,-0.07 0.437,-0.388 0.306,-0.302 0.749,-0.739 1.236,-1.218 0.489,-0.476 1.02,-0.996 1.522,-1.44 0.53,-0.415 1.017,-0.767 1.372,-0.962 1.87,-1.214 2.604,-1.622 3.139,-2.077 0.558,-0.418 0.893,-0.909 2.319,-1.689 1.515,-0.841 2.249,-0.18 3.607,-1.513 0.572,-0.562 1.28,-1.118 2.044,-1.546 0.772,-0.414 1.562,-0.776 2.24,-1.09 0.716,-0.361 1.464,-0.605 2.188,-0.887 0.73,-0.265 1.439,-0.567 2.166,-0.795 0.733,-0.215 1.461,-0.428 2.188,-0.641 0.365,-0.103 0.726,-0.22 1.094,-0.312 L 91.675,408 c 0.747,-0.154 1.498,-0.309 2.257,-0.465 0.77,-0.094 1.548,-0.189 2.338,-0.286 0.396,-0.046 0.795,-0.093 1.198,-0.14 0.404,-0.035 0.814,-0.032 1.228,-0.049 0.828,-0.022 1.674,-0.045 2.54,-0.068 0,0 -0.547,0.495 -1.129,1.022 -0.577,0.521 -1.166,1.063 -1.335,1.142 -0.928,0.408 -1.771,0.115 -2.782,0.239 -2.614,0.253 -5.584,0.446 -8.05,1.479 -2.821,1.309 -5.662,2.442 -8.396,3.878 -1.407,0.64 -2.719,1.455 -4.085,2.196 -0.678,0.379 -1.305,0.835 -1.963,1.249 -0.649,0.428 -1.319,0.833 -1.918,1.328 l -1.874,1.463 c -0.614,0.503 -1.17,1.07 -1.75,1.613 -1.187,1.062 -2.149,2.339 -3.142,3.571 -0.481,0.681 -0.906,1.398 -1.342,2.098 -0.213,0.353 -0.434,0.7 -0.636,1.058 l -0.555,1.103 c -0.361,0.738 -0.768,1.445 -1.117,2.185 -0.333,0.748 -0.686,1.486 -1.073,2.213 -0.2,0.313 -0.556,1.271 -0.963,2.114 -0.413,0.841 -0.892,1.571 -1.286,1.451 z"
   id="path27" />&#10;							</g>&#10;						</g>&#10;					</g>&#10;					<g
   id="g33">&#10;						<g
   id="g32">&#10;							<g
   id="g31">&#10;								<path
   style="clip-rule:evenodd;fill:#ffffff;fill-rule:evenodd"
   d="m 416.254,487.357 c -0.246,0.08 -0.686,-0.444 -1.404,-1.929 -2.206,-4.568 -3.183,-9.841 -3.675,-15.093 -0.388,-4.285 -0.141,-6.334 -0.092,-8.109 0.122,-1.787 -0.003,-3.296 0.088,-6.721 0.03,0.344 0.365,-1.78 1.202,-4.249 0.789,-2.483 2.18,-5.244 3.119,-6.446 2.461,-3.454 3.742,-4.472 4.622,-5.475 0.477,-0.468 0.862,-0.936 1.501,-1.457 0.612,-0.549 1.441,-1.198 2.786,-1.984 0.721,-0.388 1.394,-0.702 1.7,-0.707 0.234,-0.047 0.454,-0.09 0.666,-0.133 0.126,-0.028 0.25,-0.055 0.373,-0.083 0.092,-0.008 0.085,-0.042 0.067,-0.08 l -0.032,-0.111 c -0.196,-0.62 -0.779,-1.657 -1.996,-2.868 -2.067,-2.086 -4.282,-4.997 -6.09,-7.076 -3.852,-4.446 -7.971,-8.143 -12.86,-10.667 -2.44,-1.258 -5.052,-2.23 -7.833,-2.775 -2.777,-0.538 -5.727,-0.616 -8.703,-0.009 0,0 0.211,-0.158 0.539,-0.405 0.334,-0.244 0.797,-0.593 1.313,-0.883 1.017,-0.644 2.244,-1.16 2.597,-1.24 1.953,-0.396 3.632,0.238 5.608,0.68 2.614,0.579 5.179,1.745 7.578,3.104 2.386,1.393 4.618,3.009 6.694,4.593 4.898,3.694 8.747,8.549 12.177,13.472 l 1.276,1.859 0.96,1.4 0.604,0.879 0.299,0.436 c 0.069,0.136 0.314,0.324 0.046,0.359 l -1.84,0.819 -0.906,0.402 c -0.237,0.112 -0.333,0.175 -0.507,0.265 -0.626,0.327 -1.252,0.658 -1.835,1.065 -1.209,0.749 -2.293,1.69 -3.35,2.66 -1.003,1.026 -1.982,2.095 -2.812,3.286 -3.47,4.779 -5.381,10.741 -5.553,16.703 -0.215,6.321 1.23,12.376 2.51,18.578 0.257,1.388 1.936,7.677 1.163,7.94 z"
   id="path30" />&#10;							</g>&#10;						</g>&#10;					</g>&#10;					<g
   id="g36">&#10;						<g
   id="g35">&#10;							<g
   id="g34">&#10;								<path
   style="clip-rule:evenodd;fill:#ffffff;fill-rule:evenodd"
   d="m 387.355,383.162 c -0.069,0.254 -1.72,-0.216 -5.815,-1.828 -12.624,-4.92 -25.786,-10.51 -39.206,-14.954 -2.737,-0.884 -5.096,-1.705 -7.2,-2.353 -2.106,-0.643 -3.93,-1.2 -5.553,-1.696 -0.811,-0.249 -1.572,-0.483 -2.293,-0.705 -0.727,-0.201 -1.412,-0.391 -2.068,-0.572 -1.313,-0.356 -2.505,-0.679 -3.657,-0.991 -1.155,-0.3 -2.267,-0.601 -3.434,-0.862 -1.169,-0.251 -2.383,-0.498 -3.726,-0.756 -1.344,-0.247 -2.814,-0.516 -4.494,-0.825 -1.687,-0.268 -3.592,-0.526 -5.787,-0.833 0.433,0.041 -0.725,-0.212 -2.828,-0.645 -2.106,-0.412 -5.173,-0.912 -8.531,-1.504 -3.364,-0.55 -7.042,-1.053 -10.36,-1.561 -3.33,-0.416 -6.304,-0.811 -8.268,-1.123 -11.028,-1.406 -15.312,-1.548 -18.84,-1.752 -1.769,-0.037 -3.354,-0.07 -5.521,-0.115 -1.083,-0.029 -2.311,-0.061 -3.78,-0.1 -1.469,-0.016 -3.179,-0.036 -5.226,-0.059 -4.347,-0.105 -6.917,-0.246 -9.588,-0.41 -2.669,-0.175 -5.436,-0.137 -10.145,0.373 -7.866,0.925 -17.846,1.807 -25.336,2.913 -16.05,2.158 -30.789,5.387 -45.544,9.575 -14.763,4.173 -29.48,9.587 -45.307,16.734 0.011,-0.007 2.288,-1.531 4.779,-3.198 2.491,-1.693 5.263,-3.37 6.083,-3.781 4.485,-2.332 8.798,-3.47 13.828,-5.351 13.224,-4.741 28.206,-8.396 41.806,-11.562 1.978,-0.501 3.979,-0.901 5.978,-1.315 2.001,-0.403 3.997,-0.844 6.008,-1.204 4.029,-0.682 8.053,-1.433 12.115,-1.938 8.102,-1.183 16.278,-1.857 24.457,-2.35 16.371,-0.82 32.801,-0.444 49.051,1.19 16.53,1.561 32.936,4.417 49.115,8.104 16.982,3.983 33.49,8.766 49.644,15.652 0.895,0.397 2.63,1.048 4.655,1.982 2.026,0.929 4.396,2.016 6.66,3.054 4.462,2.223 8.433,4.367 8.328,4.766 z"
   id="path33" />&#10;							</g>&#10;						</g>&#10;					</g>&#10;					<g
   id="g39">&#10;						<g
   id="g38">&#10;							<g
   id="g37">&#10;								<path
   style="clip-rule:evenodd;fill:#ffffff;fill-rule:evenodd"
   d="m 370.494,435.582 c -0.086,0.247 -1.572,-0.207 -5.212,-1.763 -11.192,-4.792 -22.884,-10.062 -34.894,-14.186 -2.456,-0.8 -4.588,-1.494 -6.468,-2.106 -0.939,-0.311 -1.815,-0.601 -2.637,-0.873 -0.832,-0.24 -1.609,-0.464 -2.341,-0.675 -2.933,-0.836 -5.138,-1.464 -7.199,-2.051 -2.075,-0.538 -4.039,-0.909 -6.452,-1.366 -1.209,-0.21 -2.532,-0.44 -4.044,-0.703 -1.515,-0.238 -3.237,-0.411 -5.214,-0.65 0.391,0.026 -0.653,-0.187 -2.547,-0.547 -0.948,-0.176 -2.108,-0.392 -3.407,-0.634 -1.308,-0.194 -2.755,-0.408 -4.27,-0.632 -6.046,-1.003 -13.229,-1.701 -16.758,-2.281 -4.964,-0.541 -8.406,-0.921 -11.004,-1.133 -2.602,-0.162 -4.356,-0.24 -5.945,-0.294 -1.59,-0.044 -3.014,-0.107 -4.961,-0.128 -1.948,-0.007 -4.418,-0.035 -8.097,-0.122 -3.908,-0.086 -6.219,-0.252 -8.619,-0.437 -1.2,-0.081 -2.421,-0.141 -3.873,-0.137 -1.451,0.042 -3.132,0.157 -5.25,0.389 -1.771,0.197 -3.661,0.362 -5.606,0.523 -1.942,0.204 -3.94,0.391 -5.929,0.564 -3.98,0.319 -7.917,0.683 -11.299,1.04 -14.467,1.531 -27.837,3.921 -40.986,7.959 -6.565,2.032 -13.067,4.499 -19.495,7.638 -6.423,3.138 -12.77,6.969 -18.863,11.763 0.008,-0.009 1.669,-1.83 3.484,-3.82 1.887,-1.934 4.06,-3.924 4.704,-4.457 1.865,-1.308 3.695,-2.438 5.64,-3.421 0.982,-0.472 1.974,-0.948 2.993,-1.438 0.508,-0.247 1.024,-0.497 1.549,-0.751 0.533,-0.238 1.075,-0.48 1.63,-0.727 11.489,-5.5 25.101,-8.703 37.365,-11.365 14.379,-3.091 29.106,-4.378 43.804,-4.997 14.715,-0.572 29.47,-0.187 44.092,1.115 14.864,1.323 29.661,3.61 44.229,6.853 15.305,3.415 30.2,7.71 44.572,14.32 0.797,0.376 2.305,1.088 4.121,1.945 1.805,0.878 3.961,1.815 5.9,2.95 3.924,2.178 7.422,4.242 7.287,4.635 z"
   id="path36" />&#10;							</g>&#10;						</g>&#10;					</g>&#10;				</g>&#10;				<g
   id="g43">&#10;					<g
   id="g42">&#10;						<g
   id="g41">&#10;							<path
   style="clip-rule:evenodd;fill:#ffffff;fill-rule:evenodd"
   d="m 329.549,468.156 c -0.169,-0.066 -0.267,-0.366 -0.24,-1.026 0.081,-2.034 1.039,-3.812 1.907,-5.597 1.415,-2.908 1.696,-2.588 2.021,-5.163 0.016,0.273 1.262,-2.89 1.928,-3.817 1.691,-2.666 1.053,-2.156 2.072,-4.218 0.541,-1.095 1.294,-1.006 1.465,-2.378 0.142,-1.147 0.698,-2.439 1.107,-3.419 1.751,-4.194 3.212,-7.816 5.137,-12.3 10e-4,-0.003 0.648,1.953 0.645,2.23 -0.01,0.762 -0.515,1.215 -0.803,1.907 -0.753,1.807 -1.934,3.637 -2.509,5.514 -1.341,4.384 -3.558,8.42 -5.611,12.5 -1.043,2.074 -2.056,4.167 -2.894,6.331 -0.882,2.277 -1.525,4.602 -2.55,6.824 -0.228,0.498 -1.138,2.821 -1.675,2.612 z"
   id="path40" />&#10;						</g>&#10;					</g>&#10;				</g>&#10;				<g
   id="g46">&#10;					<g
   id="g45">&#10;						<g
   id="g44">&#10;							<path
   style="clip-rule:evenodd;fill:#ffffff;fill-rule:evenodd"
   d="m 336.61,461.778 c -0.165,-0.074 -0.277,-0.326 -0.29,-0.849 -0.042,-1.613 0.769,-2.911 1.495,-4.225 1.183,-2.142 1.47,-1.85 1.629,-3.864 0.032,0.22 1.037,-2.146 1.619,-2.801 1.461,-1.913 0.88,-1.587 1.734,-3.103 0.453,-0.805 1.179,-0.639 1.261,-1.712 0.069,-0.898 0.524,-1.858 0.858,-2.588 1.428,-3.125 2.612,-5.83 4.19,-9.165 0.001,-0.003 0.735,1.641 0.748,1.862 0.035,0.607 -0.421,0.904 -0.655,1.42 -0.614,1.347 -1.636,2.657 -2.075,4.083 -1.025,3.328 -2.908,6.268 -4.631,9.264 -0.876,1.523 -1.721,3.065 -2.396,4.686 -0.71,1.705 -1.188,3.479 -2.038,5.123 -0.189,0.365 -0.923,2.104 -1.449,1.869 z"
   id="path43" />&#10;						</g>&#10;					</g>&#10;				</g>&#10;				<g
   id="g49">&#10;					<g
   id="g48">&#10;						<g
   id="g47">&#10;							<path
   style="clip-rule:evenodd;fill:#ffffff;fill-rule:evenodd"
   d="m 343.229,458.727 c -0.165,-0.075 -0.287,-0.305 -0.328,-0.77 -0.128,-1.435 0.593,-2.543 1.228,-3.671 1.036,-1.838 1.332,-1.563 1.379,-3.343 0.043,0.197 0.894,-1.85 1.426,-2.4 1.32,-1.619 0.772,-1.361 1.521,-2.661 0.398,-0.69 1.113,-0.503 1.136,-1.452 0.019,-0.794 0.41,-1.622 0.696,-2.252 1.223,-2.697 2.23,-5.036 3.587,-7.912 10e-4,-0.002 0.804,1.498 0.828,1.695 0.067,0.541 -0.361,0.78 -0.562,1.226 -0.525,1.163 -1.45,2.271 -1.801,3.513 -0.819,2.901 -2.494,5.409 -4.011,7.976 -0.771,1.305 -1.511,2.628 -2.081,4.031 -0.599,1.476 -0.97,3.026 -1.708,4.439 -0.164,0.314 -0.785,1.818 -1.31,1.581 z"
   id="path46" />&#10;						</g>&#10;					</g>&#10;				</g>&#10;				<g
   id="g52">&#10;					<g
   id="g51">&#10;						<g
   id="g50">&#10;							<path
   style="clip-rule:evenodd;fill:#ffffff;fill-rule:evenodd"
   d="m 349.184,458.529 c -0.165,-0.075 -0.295,-0.289 -0.356,-0.717 -0.189,-1.316 0.467,-2.301 1.039,-3.307 0.933,-1.639 1.235,-1.376 1.201,-3.001 0.051,0.182 0.793,-1.656 1.29,-2.137 1.22,-1.428 0.695,-1.214 1.371,-2.373 0.359,-0.615 1.068,-0.416 1.048,-1.282 -0.017,-0.724 0.329,-1.466 0.581,-2.031 1.077,-2.417 1.959,-4.515 3.16,-7.09 0.001,-0.002 0.855,1.4 0.888,1.581 0.09,0.497 -0.319,0.699 -0.496,1.098 -0.462,1.042 -1.319,2.019 -1.607,3.14 -0.672,2.618 -2.201,4.845 -3.572,7.132 -0.697,1.162 -1.363,2.343 -1.858,3.602 -0.521,1.325 -0.814,2.727 -1.475,3.99 -0.148,0.282 -0.69,1.632 -1.214,1.395 z"
   id="path49" />&#10;						</g>&#10;					</g>&#10;				</g>&#10;				<g
   id="g55">&#10;					<g
   id="g54">&#10;						<g
   id="g53">&#10;							<path
   style="clip-rule:evenodd;fill:#ffffff;fill-rule:evenodd"
   d="m 354.262,457.867 c -0.166,-0.071 -0.308,-0.268 -0.397,-0.655 -0.275,-1.192 0.3,-2.065 0.791,-2.959 0.801,-1.457 1.115,-1.213 0.971,-2.679 0.062,0.165 0.663,-1.475 1.116,-1.898 1.097,-1.26 0.597,-1.079 1.18,-2.109 0.309,-0.547 1.017,-0.351 0.938,-1.133 -0.066,-0.654 0.222,-1.315 0.43,-1.818 0.889,-2.156 1.609,-4.027 2.608,-6.323 10e-4,-0.002 0.932,1.283 0.976,1.447 0.122,0.45 -0.264,0.623 -0.41,0.979 -0.381,0.93 -1.153,1.79 -1.358,2.795 -0.479,2.346 -1.824,4.32 -3.009,6.351 -0.603,1.032 -1.174,2.082 -1.573,3.207 -0.419,1.183 -0.611,2.441 -1.171,3.565 -0.125,0.251 -0.563,1.456 -1.092,1.23 z"
   id="path52" />&#10;						</g>&#10;					</g>&#10;				</g>&#10;				<g
   id="g58">&#10;					<g
   id="g57">&#10;						<g
   id="g56">&#10;							<path
   style="clip-rule:evenodd;fill:#ffffff;fill-rule:evenodd"
   d="m 359.737,457.82 c -0.167,-0.069 -0.31,-0.268 -0.399,-0.663 -0.276,-1.219 0.302,-2.132 0.797,-3.064 0.807,-1.519 1.121,-1.276 0.977,-2.781 0.062,0.168 0.668,-1.534 1.123,-1.981 1.103,-1.324 0.601,-1.125 1.188,-2.199 0.311,-0.57 1.023,-0.387 0.944,-1.189 -0.066,-0.671 0.224,-1.358 0.433,-1.882 0.895,-2.24 1.62,-4.184 2.626,-6.57 0.001,-0.002 0.936,1.296 0.981,1.464 0.122,0.46 -0.266,0.648 -0.413,1.018 -0.384,0.966 -1.16,1.871 -1.367,2.91 -0.483,2.426 -1.836,4.49 -3.029,6.609 -0.606,1.077 -1.181,2.171 -1.583,3.339 -0.422,1.228 -0.615,2.527 -1.179,3.697 -0.126,0.26 -0.567,1.511 -1.099,1.292 z"
   id="path55" />&#10;						</g>&#10;					</g>&#10;				</g>&#10;				<g
   id="g61">&#10;					<g
   id="g60">&#10;						<g
   id="g59">&#10;							<path
   style="clip-rule:evenodd;fill:#ffffff;fill-rule:evenodd"
   d="m 365.177,456.176 c -0.167,-0.07 -0.328,-0.228 -0.465,-0.515 -0.423,-0.887 0.001,-1.447 0.342,-2.032 0.557,-0.953 0.886,-0.742 0.55,-1.811 0.081,0.126 0.424,-0.982 0.794,-1.234 0.863,-0.778 0.416,-0.706 0.826,-1.377 0.217,-0.357 0.912,-0.135 0.73,-0.705 -0.152,-0.477 0.03,-0.918 0.157,-1.255 0.544,-1.444 0.968,-2.705 1.598,-4.237 10e-4,-10e-4 1.055,1.027 1.119,1.15 0.176,0.337 -0.164,0.417 -0.253,0.655 -0.233,0.623 -0.843,1.152 -0.9,1.849 -0.132,1.629 -1.131,2.89 -1.972,4.211 -0.427,0.672 -0.823,1.359 -1.046,2.12 -0.234,0.801 -0.243,1.681 -0.618,2.423 -0.083,0.167 -0.332,0.981 -0.862,0.758 z"
   id="path58" />&#10;						</g>&#10;					</g>&#10;				</g>&#10;				<g
   id="g64">&#10;					<g
   id="g63">&#10;						<g
   id="g62">&#10;							<path
   style="clip-rule:evenodd;fill:#ffffff;fill-rule:evenodd"
   d="m 118.904,444.222 c 0.168,-0.068 0.396,-0.062 0.704,0.066 0.95,0.393 1.072,1.156 1.268,1.878 0.32,1.177 -0.064,1.253 0.961,1.857 -0.149,-0.04 0.433,1.101 0.364,1.577 -0.021,1.265 0.234,0.874 0.448,1.716 0.114,0.447 -0.532,0.787 0.016,1.108 0.459,0.268 0.659,0.756 0.821,1.12 0.693,1.56 1.333,2.882 2.031,4.575 0,10e-4 -1.492,-0.035 -1.628,-0.085 -0.372,-0.138 -0.195,-0.455 -0.31,-0.712 -0.3,-0.671 -0.269,-1.549 -0.746,-2.148 -1.115,-1.399 -1.357,-3.151 -1.753,-4.834 -0.201,-0.855 -0.436,-1.699 -0.846,-2.473 -0.431,-0.814 -1.077,-1.524 -1.367,-2.397 -0.064,-0.195 -0.495,-1.031 0.037,-1.248 z"
   id="path61" />&#10;						</g>&#10;					</g>&#10;				</g>&#10;				<g
   id="g67">&#10;					<g
   id="g66">&#10;						<g
   id="g65">&#10;							<path
   style="clip-rule:evenodd;fill:#ffffff;fill-rule:evenodd"
   d="m 122.646,438.724 c 0.17,-0.063 0.41,-0.013 0.744,0.22 1.032,0.715 1.229,1.785 1.501,2.813 0.442,1.675 0.046,1.709 1.176,2.726 -0.16,-0.082 0.555,1.592 0.524,2.233 0.092,1.733 0.325,1.243 0.626,2.439 0.16,0.635 -0.487,0.983 0.117,1.524 0.505,0.452 0.76,1.159 0.963,1.689 0.868,2.27 1.66,4.204 2.546,6.657 0.001,0.002 -1.569,-0.323 -1.716,-0.416 -0.403,-0.258 -0.246,-0.661 -0.39,-1.035 -0.376,-0.977 -0.423,-2.177 -0.978,-3.088 -1.297,-2.127 -1.71,-4.578 -2.277,-6.961 -0.289,-1.211 -0.612,-2.414 -1.111,-3.552 -0.526,-1.198 -1.268,-2.291 -1.651,-3.543 -0.085,-0.278 -0.613,-1.505 -0.074,-1.706 z"
   id="path64" />&#10;						</g>&#10;					</g>&#10;				</g>&#10;				<g
   id="g70">&#10;					<g
   id="g69">&#10;						<g
   id="g68">&#10;							<path
   style="clip-rule:evenodd;fill:#ffffff;fill-rule:evenodd"
   d="m 126.712,435.502 c 0.171,-0.059 0.412,0.005 0.749,0.266 1.037,0.805 1.232,1.95 1.503,3.053 0.44,1.798 0.041,1.817 1.176,2.947 -0.161,-0.094 0.554,1.715 0.521,2.394 0.088,1.844 0.324,1.335 0.623,2.617 0.159,0.681 -0.493,1.022 0.113,1.623 0.508,0.502 0.762,1.264 0.964,1.836 0.868,2.448 1.659,4.537 2.544,7.181 0.001,0.002 -1.579,-0.412 -1.726,-0.517 -0.405,-0.291 -0.245,-0.713 -0.389,-1.117 -0.376,-1.054 -0.419,-2.33 -0.975,-3.322 -1.3,-2.315 -1.708,-4.936 -2.272,-7.492 -0.287,-1.299 -0.609,-2.59 -1.109,-3.821 -0.526,-1.295 -1.27,-2.489 -1.652,-3.835 -0.086,-0.298 -0.614,-1.624 -0.07,-1.813 z"
   id="path67" />&#10;						</g>&#10;					</g>&#10;				</g>&#10;				<g
   id="g73">&#10;					<g
   id="g72">&#10;						<g
   id="g71">&#10;							<path
   style="clip-rule:evenodd;fill:#ffffff;fill-rule:evenodd"
   d="m 131.442,432.343 c 0.17,-0.062 0.42,0.022 0.78,0.34 1.111,0.979 1.387,2.321 1.738,3.617 0.571,2.112 0.166,2.118 1.398,3.48 -0.17,-0.117 0.681,2.02 0.694,2.81 0.215,2.152 0.42,1.567 0.813,3.073 0.208,0.8 -0.432,1.171 0.226,1.895 0.551,0.605 0.862,1.503 1.107,2.178 1.05,2.887 1.998,5.351 3.079,8.467 0.001,0.002 -1.635,-0.542 -1.792,-0.672 -0.432,-0.355 -0.298,-0.84 -0.473,-1.316 -0.454,-1.243 -0.586,-2.731 -1.22,-3.908 -1.481,-2.749 -2.076,-5.818 -2.824,-8.818 -0.381,-1.525 -0.796,-3.041 -1.389,-4.495 -0.624,-1.529 -1.463,-2.95 -1.943,-4.533 -0.107,-0.353 -0.735,-1.92 -0.194,-2.118 z"
   id="path70" />&#10;						</g>&#10;					</g>&#10;				</g>&#10;				<g
   id="g76">&#10;					<g
   id="g75">&#10;						<g
   id="g74">&#10;							<path
   style="clip-rule:evenodd;fill:#ffffff;fill-rule:evenodd"
   d="m 136.969,430.742 c 0.172,-0.056 0.425,0.058 0.788,0.444 1.122,1.19 1.399,2.72 1.752,4.205 0.574,2.42 0.164,2.395 1.408,4.024 -0.172,-0.145 0.685,2.325 0.697,3.215 0.214,2.436 0.423,1.796 0.817,3.52 0.209,0.916 -0.439,1.282 0.225,2.149 0.556,0.724 0.869,1.759 1.116,2.537 1.057,3.329 2.011,6.176 3.1,9.765 10e-4,0.003 -1.653,-0.741 -1.811,-0.898 -0.436,-0.434 -0.3,-0.968 -0.476,-1.517 -0.457,-1.434 -0.588,-3.117 -1.227,-4.492 -1.493,-3.209 -2.089,-6.707 -2.841,-10.139 -0.383,-1.744 -0.8,-3.483 -1.397,-5.165 -0.628,-1.769 -1.474,-3.434 -1.958,-5.252 -0.107,-0.405 -0.739,-2.216 -0.193,-2.396 z"
   id="path73" />&#10;						</g>&#10;					</g>&#10;				</g>&#10;				<g
   id="g79">&#10;					<g
   id="g78">&#10;						<g
   id="g77">&#10;							<path
   style="clip-rule:evenodd;fill:#ffffff;fill-rule:evenodd"
   d="m 141.859,426.726 c 0.172,-0.055 0.434,0.1 0.818,0.587 1.184,1.499 1.524,3.344 1.938,5.141 0.674,2.927 0.258,2.868 1.583,4.9 -0.18,-0.185 0.783,2.822 0.83,3.884 0.309,2.921 0.497,2.172 0.963,4.257 0.247,1.107 -0.397,1.498 0.31,2.579 0.592,0.904 0.949,2.16 1.229,3.105 1.199,4.046 2.276,7.51 3.518,11.868 0.001,0.003 -1.706,-1.002 -1.873,-1.201 -0.459,-0.549 -0.342,-1.176 -0.541,-1.844 -0.518,-1.743 -0.715,-3.759 -1.416,-5.444 -1.638,-3.934 -2.375,-8.149 -3.269,-12.296 -0.454,-2.108 -0.944,-4.211 -1.615,-6.26 -0.705,-2.155 -1.627,-4.201 -2.187,-6.403 -0.126,-0.492 -0.836,-2.698 -0.288,-2.873 z"
   id="path76" />&#10;						</g>&#10;					</g>&#10;				</g>&#10;			</g>&#10;		</g>&#10;		<g
   id="g108">&#10;			<g
   id="g94">&#10;				<g
   id="g82">&#10;					<path
   style="fill:#ffffff"
   d="m 150.723,316.941 c -3.928,1.025 -8.151,0.544 -12.193,0.556 -5.056,0.015 -10.111,0.091 -15.166,0.155 -9.05,0.115 -18.594,1.074 -27.588,-0.029 -1.172,-0.144 -0.948,-1.894 0.129,-2.027 9.23,-1.134 19.035,-0.116 28.33,10e-4 4.725,0.06 9.45,0.128 14.175,0.142 4.058,0.012 8.324,-0.488 12.268,0.544 0.293,0.078 0.388,0.569 0.045,0.658 z"
   id="path81" />&#10;				</g>&#10;				<g
   id="g93">&#10;					<g
   id="g87">&#10;						<g
   id="g83">&#10;							<path
   style="fill:#ffffff"
   d="m 86.516,321.366 c 1.572,-0.966 3.327,-1.605 4.99,-2.391 1.641,-0.775 3.232,-1.827 5.025,-2.16 0.346,-0.064 0.571,0.442 0.336,0.686 -1.239,1.283 -2.977,1.95 -4.566,2.68 -1.774,0.815 -3.572,1.672 -5.49,2.053 -0.459,0.091 -0.674,-0.635 -0.295,-0.868 z"
   id="path82" />&#10;						</g>&#10;						<g
   id="g84">&#10;							<path
   style="fill:#ffffff"
   d="m 86.529,321.756 c -2.906,-1.07 -6.638,-2.396 -8.851,-4.676 -0.369,-0.381 -0.111,-1.274 0.511,-1.058 1.498,0.52 2.815,1.494 4.215,2.24 1.54,0.821 3.121,1.574 4.709,2.292 0.789,0.356 0.195,1.488 -0.584,1.202 z"
   id="path83" />&#10;						</g>&#10;						<g
   id="g85">&#10;							<path
   style="fill:#ffffff"
   d="m 102.224,323.503 c 3.08,-2.411 6.903,1.086 6.321,4.6 -0.743,4.484 -6.236,6.169 -9.863,4.286 -3.683,-1.912 -5.842,-6.675 -4.079,-10.648 1.757,-3.959 6.558,-6.016 10.478,-4.328 0.908,0.391 0.402,1.914 -0.56,1.671 -5.097,-1.288 -10.786,3.411 -7.721,8.828 1.382,2.444 4.248,4.004 6.98,3.031 1.703,-0.607 3.532,-2.348 2.959,-4.441 -0.479,-1.753 -2.581,-3.049 -4.332,-2.632 -0.221,0.052 -0.375,-0.218 -0.183,-0.367 z"
   id="path84" />&#10;						</g>&#10;						<g
   id="g86">&#10;							<path
   style="fill:#ffffff"
   d="m 88.113,325.054 c 0,-2.935 4.489,-3.277 4.489,-0.32 0,2.935 -4.489,3.277 -4.489,0.32 z"
   id="path85" />&#10;						</g>&#10;					</g>&#10;					<g
   id="g92">&#10;						<g
   id="g88">&#10;							<path
   style="fill:#ffffff"
   d="m 86.871,311.013 c 1.802,0.355 3.513,1.172 5.181,1.929 1.647,0.748 3.491,1.426 4.774,2.754 0.278,0.288 0.071,0.797 -0.348,0.72 -1.69,-0.31 -3.185,-1.297 -4.726,-2.033 -1.721,-0.822 -3.551,-1.477 -5.181,-2.477 -0.436,-0.269 -0.246,-1.001 0.3,-0.893 z"
   id="path87" />&#10;						</g>&#10;						<g
   id="g89">&#10;							<path
   style="fill:#ffffff"
   d="m 87.04,312.717 c -1.625,0.734 -3.246,1.503 -4.817,2.351 -1.309,0.707 -2.547,1.641 -3.953,2.127 -0.54,0.186 -1.086,-0.527 -0.651,-0.975 2.229,-2.297 6.053,-3.69 8.983,-4.768 0.807,-0.298 1.202,0.919 0.438,1.265 z"
   id="path88" />&#10;						</g>&#10;						<g
   id="g90">&#10;							<path
   style="fill:#ffffff"
   d="m 102.379,309.361 c 1.622,0.384 3.412,-0.559 4.146,-2.091 0.939,-1.958 -0.478,-3.887 -2.157,-4.725 -2.799,-1.396 -5.966,0.078 -7.499,2.661 -3.146,5.3 2.372,10.288 7.535,8.982 1.084,-0.274 1.629,1.228 0.581,1.68 -3.882,1.672 -8.647,-0.485 -10.369,-4.365 -1.78,-4.01 0.406,-8.832 4.175,-10.7 3.56,-1.764 8.775,-0.2 9.709,4.083 0.784,3.597 -3.114,7.324 -6.294,4.835 -0.163,-0.127 -0.02,-0.406 0.173,-0.36 z"
   id="path89" />&#10;						</g>&#10;						<g
   id="g91">&#10;							<path
   style="fill:#ffffff"
   d="m 88.113,308.504 c 0,-2.935 4.489,-3.277 4.489,-0.32 0,2.935 -4.489,3.278 -4.489,0.32 z"
   id="path90" />&#10;						</g>&#10;					</g>&#10;				</g>&#10;			</g>&#10;			<g
   id="g107">&#10;				<g
   id="g95">&#10;					<path
   style="fill:#ffffff"
   d="m 333.318,316.941 c 3.928,1.025 8.151,0.544 12.193,0.556 5.056,0.015 10.111,0.091 15.166,0.155 9.05,0.115 18.594,1.074 27.588,-0.029 1.172,-0.144 0.948,-1.894 -0.129,-2.027 -9.23,-1.134 -19.035,-0.116 -28.33,10e-4 -4.725,0.06 -9.449,0.128 -14.175,0.142 -4.058,0.012 -8.324,-0.488 -12.268,0.544 -0.294,0.078 -0.388,0.569 -0.045,0.658 z"
   id="path94" />&#10;				</g>&#10;				<g
   id="g106">&#10;					<g
   id="g100">&#10;						<g
   id="g96">&#10;							<path
   style="fill:#ffffff"
   d="m 397.525,321.366 c -1.572,-0.966 -3.327,-1.605 -4.99,-2.391 -1.641,-0.775 -3.232,-1.827 -5.025,-2.16 -0.346,-0.064 -0.571,0.442 -0.335,0.686 1.239,1.283 2.977,1.95 4.566,2.68 1.773,0.815 3.572,1.672 5.49,2.053 0.458,0.091 0.672,-0.635 0.294,-0.868 z"
   id="path95" />&#10;						</g>&#10;						<g
   id="g97">&#10;							<path
   style="fill:#ffffff"
   d="m 397.512,321.756 c 2.906,-1.07 6.638,-2.396 8.851,-4.676 0.369,-0.381 0.111,-1.274 -0.511,-1.058 -1.498,0.52 -2.815,1.494 -4.215,2.24 -1.54,0.821 -3.121,1.574 -4.709,2.292 -0.789,0.356 -0.195,1.488 0.584,1.202 z"
   id="path96" />&#10;						</g>&#10;						<g
   id="g98">&#10;							<path
   style="fill:#ffffff"
   d="m 381.817,323.503 c -3.08,-2.411 -6.903,1.086 -6.321,4.6 0.743,4.484 6.236,6.169 9.863,4.286 3.683,-1.912 5.842,-6.675 4.079,-10.648 -1.757,-3.959 -6.558,-6.016 -10.478,-4.328 -0.908,0.391 -0.402,1.914 0.56,1.671 5.097,-1.288 10.786,3.411 7.721,8.828 -1.383,2.444 -4.248,4.004 -6.98,3.031 -1.703,-0.607 -3.532,-2.348 -2.959,-4.441 0.479,-1.753 2.581,-3.049 4.332,-2.632 0.221,0.052 0.374,-0.218 0.183,-0.367 z"
   id="path97" />&#10;						</g>&#10;						<g
   id="g99">&#10;							<path
   style="fill:#ffffff"
   d="m 395.928,325.054 c 0,-2.935 -4.489,-3.277 -4.489,-0.32 0,2.935 4.489,3.277 4.489,0.32 z"
   id="path98" />&#10;						</g>&#10;					</g>&#10;					<g
   id="g105">&#10;						<g
   id="g101">&#10;							<path
   style="fill:#ffffff"
   d="m 397.17,311.013 c -1.802,0.355 -3.513,1.172 -5.181,1.929 -1.647,0.748 -3.491,1.426 -4.775,2.754 -0.278,0.288 -0.071,0.797 0.348,0.72 1.69,-0.31 3.185,-1.297 4.726,-2.033 1.721,-0.822 3.552,-1.477 5.181,-2.477 0.436,-0.269 0.246,-1.001 -0.299,-0.893 z"
   id="path100" />&#10;						</g>&#10;						<g
   id="g102">&#10;							<path
   style="fill:#ffffff"
   d="m 397.001,312.717 c 1.625,0.734 3.246,1.503 4.817,2.351 1.309,0.707 2.547,1.641 3.953,2.127 0.54,0.186 1.086,-0.527 0.651,-0.975 -2.229,-2.297 -6.053,-3.69 -8.983,-4.768 -0.808,-0.298 -1.202,0.919 -0.438,1.265 z"
   id="path101" />&#10;						</g>&#10;						<g
   id="g103">&#10;							<path
   style="fill:#ffffff"
   d="m 381.662,309.361 c -1.622,0.384 -3.412,-0.559 -4.146,-2.091 -0.939,-1.958 0.478,-3.887 2.157,-4.725 2.799,-1.396 5.966,0.078 7.499,2.661 3.146,5.3 -2.372,10.288 -7.535,8.982 -1.083,-0.274 -1.629,1.228 -0.581,1.68 3.882,1.672 8.647,-0.485 10.369,-4.365 1.78,-4.01 -0.406,-8.832 -4.175,-10.7 -3.559,-1.764 -8.775,-0.2 -9.709,4.083 -0.784,3.597 3.114,7.324 6.294,4.835 0.163,-0.127 0.02,-0.406 -0.173,-0.36 z"
   id="path102" />&#10;						</g>&#10;						<g
   id="g104">&#10;							<path
   style="fill:#ffffff"
   d="m 395.928,308.504 c 0,-2.935 -4.489,-3.277 -4.489,-0.32 0,2.935 4.489,3.278 4.489,0.32 z"
   id="path103" />&#10;						</g>&#10;					</g>&#10;				</g>&#10;			</g>&#10;		</g>&#10;	</g>&#10;	&#10;		&#10;</g>&#10;</svg>
