<?xml version="1.0" encoding="UTF-8"?>
<!DOCTYPE svg PUBLIC "-//W3C//DTD SVG 1.1//EN" "http://www.w3.org/Graphics/SVG/1.1/DTD/svg11.dtd">
<svg xmlns="http://www.w3.org/2000/svg" version="1.1" width="317px" height="328px" style="shape-rendering:geometricPrecision; text-rendering:geometricPrecision; image-rendering:optimizeQuality; fill-rule:evenodd; clip-rule:evenodd" xmlns:xlink="http://www.w3.org/1999/xlink">
<g><path style="opacity:1" fill="#2c2c54" d="M 190.5,200.5 C 190.5,191.833 190.5,183.167 190.5,174.5C 212.833,174.5 235.167,174.5 257.5,174.5C 257.667,196.503 257.5,218.503 257,240.5C 238.578,262.926 219.411,284.76 199.5,306C 170.833,306.667 142.167,306.667 113.5,306C 95.0378,284.536 76.2045,263.369 57,242.5C 56.3333,200.833 56.3333,159.167 57,117.5C 66.4581,72.0418 93.9581,44.5418 139.5,35C 180.205,29.5609 213.371,42.7276 239,74.5C 253.269,95.571 259.436,118.904 257.5,144.5C 235.167,144.5 212.833,144.5 190.5,144.5C 193.828,128.664 189.828,115.164 178.5,104C 161.16,93.038 144.993,94.538 130,108.5C 127.565,111.934 125.565,115.6 124,119.5C 122.869,136.791 122.369,154.125 122.5,171.5C 122.667,187.167 122.833,202.833 123,218.5C 133.931,231.354 145.098,244.021 156.5,256.5C 167.823,244.342 178.99,232.009 190,219.5C 190.5,213.175 190.666,206.842 190.5,200.5 Z"/></g>
<g><path style="opacity:1" fill="#bf5c36" d="M 190.5,174.5 C 190.5,183.167 190.5,191.833 190.5,200.5C 172.833,200.5 155.167,200.5 137.5,200.5C 137.5,191.833 137.5,183.167 137.5,174.5C 155.167,174.5 172.833,174.5 190.5,174.5 Z"/></g>
</svg>
