<?xml version="1.0" encoding="UTF-8" standalone="no"?>
<!-- Created with Inkscape (http://www.inkscape.org/) -->
<svg
   xmlns:svg="http://www.w3.org/2000/svg"
   xmlns="http://www.w3.org/2000/svg"
   xmlns:xlink="http://www.w3.org/1999/xlink"
   version="1.0"
   width="956.69287"
   height="275.31494"
   id="svg13723">
  <defs
     id="defs13725">
    <linearGradient
       id="linearGradient12713">
      <stop
         style="stop-color:#1f3c7d;stop-opacity:1"
         offset="0"
         id="stop12715" />
      <stop
         style="stop-color:#676fa5;stop-opacity:1"
         offset="0.34862384"
         id="stop13696" />
      <stop
         style="stop-color:#1f3a85;stop-opacity:1"
         offset="1"
         id="stop12717" />
    </linearGradient>
    <linearGradient
       x1="127.84375"
       y1="228.49971"
       x2="127.84375"
       y2="341.3125"
       id="linearGradient13692"
       xlink:href="#linearGradient12713"
       gradientUnits="userSpaceOnUse" />
  </defs>
  <g
     transform="translate(-365.75303,-150.39104)"
     id="layer1">
    <g
       transform="matrix(6.3880113,0,0,6.3880113,229.63473,-225.10096)"
       style="fill-rule:evenodd"
       id="g13698">
      <path
         d="M 142.8125,233.25 C 142.9101,233.26728 142.99693,233.29465 143.09375,233.3125 C 143.20055,233.33204 143.30041,233.35476 143.40625,233.375 C 143.44913,233.38326 143.48852,233.39787 143.53125,233.40625 C 143.62678,233.42486 143.71777,233.44956 143.8125,233.46875 C 143.86545,233.47923 143.91605,233.48934 143.96875,233.5 C 144.02092,233.51086 144.07308,233.52022 144.125,233.53125 C 144.18689,233.54432 144.25097,233.54918 144.3125,233.5625 C 144.35423,233.57158 144.39594,233.58455 144.4375,233.59375 C 144.48981,233.60498 144.54169,233.61359 144.59375,233.625 C 144.61549,233.62991 144.63456,233.65131 144.65625,233.65625 C 144.7269,233.67234 144.80483,233.67107 144.875,233.6875 C 144.91599,233.6971 144.95917,233.70904 145,233.71875 C 145.02146,233.72385 145.04109,233.74487 145.0625,233.75 C 145.12257,233.76441 145.19029,233.76659 145.25,233.78125 C 145.25939,233.78348 145.27187,233.77902 145.28125,233.78125 C 145.32445,233.79189 145.36324,233.80172 145.40625,233.8125 C 145.44902,233.8232 145.48867,233.83293 145.53125,233.84375 C 145.56399,233.85201 145.59238,233.86667 145.625,233.875 C 145.75301,233.90802 145.87374,233.93456 146,233.96875 C 146.17105,234.01506 146.3322,234.07654 146.5,234.125 C 146.57301,234.14584 146.64636,234.16625 146.71875,234.1875 C 146.90334,234.24218 147.10073,234.28643 147.28125,234.34375 C 147.36131,234.36923 147.452,234.38025 147.53125,234.40625 C 147.54334,234.41021 147.55043,234.43353 147.5625,234.4375 C 147.57202,234.44064 147.58425,234.43435 147.59375,234.4375 C 147.62577,234.44807 147.65561,234.4581 147.6875,234.46875 C 148.35552,234.69257 149.01765,234.92633 149.625,235.1875 C 149.63684,235.19258 149.64443,235.21366 149.65625,235.21875 C 149.66499,235.22253 149.67878,235.21496 149.6875,235.21875 C 149.70892,235.22802 149.72866,235.24068 149.75,235.25 C 150.0325,235.37365 150.29393,235.52442 150.5625,235.65625 C 150.57092,235.66038 150.58534,235.65212 150.59375,235.65625 C 150.89471,235.80451 151.18582,235.96645 151.46875,236.125 C 151.47658,236.12938 151.49218,236.12061 151.5,236.125 C 151.52063,236.1366 151.54197,236.14459 151.5625,236.15625 C 151.82299,236.30415 152.06795,236.46829 152.3125,236.625 C 152.31988,236.62973 152.33638,236.62027 152.34375,236.625 C 152.4406,236.6873 152.5307,236.74881 152.625,236.8125 C 152.78707,236.92195 152.93933,237.0427 153.09375,237.15625 C 153.10044,237.16116 153.11832,237.15133 153.125,237.15625 C 153.13628,237.16452 153.14501,237.17921 153.15625,237.1875 C 153.33914,237.3234 153.51569,237.45204 153.6875,237.59375 C 153.73258,237.63093 153.76819,237.68117 153.8125,237.71875 C 153.81864,237.72395 153.83762,237.71354 153.84375,237.71875 C 153.85478,237.72807 153.86401,237.74065 153.875,237.75 C 154.08705,237.93181 154.27491,238.15268 154.46875,238.34375 C 154.68253,238.55395 154.90262,238.74733 155.09375,238.96875 C 155.46309,239.39622 155.78059,239.84335 156.0625,240.3125 C 156.06687,240.31977 156.05816,240.33647 156.0625,240.34375 C 156.19925,240.57436 156.35381,240.8219 156.46875,241.0625 C 156.7178,241.58337 156.92649,242.1044 157.125,242.65625 C 157.12829,242.66536 157.12172,242.67838 157.125,242.6875 C 157.31608,243.22152 157.51723,243.78436 157.65625,244.34375 C 157.65866,244.35345 157.65386,244.3653 157.65625,244.375 C 157.79571,244.94407 157.91928,245.53337 158,246.125 C 158.0014,246.13518 157.99862,246.14606 158,246.15625 C 158.03913,246.44706 158.0697,246.73567 158.09375,247.03125 C 158.14528,247.65353 158.1443,248.26582 158.125,248.90625 C 158.10672,249.50631 158.05389,250.13748 157.96875,250.75 C 157.96581,250.77102 157.97178,250.79147 157.96875,250.8125 C 157.96728,250.82279 157.97024,250.83346 157.96875,250.84375 C 157.96114,250.89598 157.94561,250.94769 157.9375,251 C 157.84624,251.59279 157.72078,252.18036 157.5625,252.78125 C 157.45022,253.20878 157.33537,253.63211 157.1875,254.0625 C 157.17693,254.09319 157.16701,254.12555 157.15625,254.15625 C 157.08811,254.35115 157.01317,254.5547 156.9375,254.75 C 156.80925,255.07975 156.6503,255.41952 156.5,255.75 L 200.46875,255.75 L 200.46875,255.71875 L 205.1875,244.5 L 209.9375,233.25 L 142.8125,233.25 z "
         transform="matrix(0.2822222,0,0,0.2822222,-1.3919578e-6,0)"
         style="fill:#e5e5e5;fill-opacity:1"
         id="path10" />
      <path
         d="M 141.96875,268.8125 C 139.3771,270.18544 136.41474,271.49054 133.0625,272.6875 C 133.0532,272.69082 133.04055,272.68418 133.03125,272.6875 C 131.35811,273.28424 129.59456,273.86297 127.71875,274.40625 C 127.70896,274.40909 127.6973,274.40342 127.6875,274.40625 C 125.80081,274.95207 123.81931,275.45224 121.71875,275.9375 C 121.72825,275.94948 121.7405,275.95678 121.75,275.96875 C 125.29685,280.44355 128.54481,284.12273 132,289.0625 C 132.00498,289.0696 131.99502,289.08664 132,289.09375 C 132.4889,289.7931 133.00176,290.52632 133.5,291.28125 L 185.15625,291.28125 L 185.1875,291.28125 L 194.65625,268.8125 L 194.625,268.8125 L 141.96875,268.8125 z "
         transform="matrix(0.2822222,0,0,0.2822222,-1.3919578e-6,0)"
         style="fill:#e5e5e5;fill-opacity:1"
         id="path526" />
      <path
         d="M 61.8031,64.9855 C 61.7787,66.0927 61.3907,67.087 60.9329,68.2622 L 57.0558,78.2031 C 56.6507,79.2426 56.1996,80.2821 55.4733,81.2764 L 59.9922,81.2762 C 60.0584,80.6432 60.1331,79.9883 60.3972,79.3103 C 60.4944,79.0615 60.6227,78.7911 60.72,78.5425 C 61.3366,76.9604 61.9389,75.3569 62.5562,73.775 C 62.6935,74.0004 62.8626,74.2038 63.0235,74.4301 C 63.2617,74.7462 63.2861,75.379 63.4302,75.7634 L 64.6781,78.994 C 64.9422,79.6491 65.2655,80.3275 65.8213,80.757 C 66.5632,81.3443 67.268,81.2764 68.3979,81.2764 L 70.8151,81.2762 C 69.6584,80.4178 68.9691,79.288 68.4898,77.9097 L 66.7132,72.8482 C 69.0923,72.1929 71.5413,70.8379 72.4842,68.4201 C 73.5156,65.7764 71.4805,64.7373 69.1754,64.7373 C 68.4974,64.7373 67.7842,64.8278 67.1121,64.8732 C 65.2968,65.008 63.5658,64.9859 61.8031,64.9855 L 61.8031,64.9855 z M 65.5037,66.2738 C 65.9593,66.2055 66.42,66.1834 66.8495,66.1834 C 68.6116,66.1832 69.2406,67.1775 68.5535,68.9394 C 67.7519,70.9957 65.5607,72.4419 63.5503,72.4419 C 63.3923,72.4417 63.2744,72.3967 63.1252,72.3744 L 65.5037,66.2738 L 65.5037,66.2738 z "
         style="fill:#1f3c7d;fill-opacity:1"
         id="path1042" />
      <path
         d="M 70.2681,81.2762 L 80.6843,81.2762 L 82.2758,79.107 C 80.784,79.5135 79.3941,79.7177 77.9926,79.7177 L 75.0112,79.7177 L 77.4957,73.3451 L 78.9417,73.3451 C 79.9812,73.3451 80.9989,73.4589 81.8512,73.8204 L 82.7505,71.5153 C 81.6243,71.8541 80.5234,72.0123 79.4839,72.0123 L 78.0149,72.0123 L 80.2445,66.2959 L 82.5717,66.2959 C 83.3166,66.2959 84.8314,66.4088 85.4532,66.6122 C 85.6751,66.6803 85.8886,66.7709 86.1104,66.8385 L 86.5615,64.9855 L 76.6656,64.9855 C 76.543,65.8219 76.3161,66.6351 75.9815,67.4935 L 71.6912,78.4969 C 71.3211,79.446 70.878,80.3496 70.2681,81.2762 L 70.2681,81.2762 z "
         style="fill:#1f3c7d;fill-opacity:1"
         id="path1044" />
      <path
         d="M 80.5322,87.8447 L 84.1742,87.8447 C 84.443,86.7394 84.8545,85.6017 85.2854,84.4955 L 86.6677,80.9511 C 87.4667,81.5691 88.216,81.7319 89.4193,81.7319 C 94.6875,81.7315 98.6233,77.3095 100.4624,72.594 C 101.8825,68.9518 101.9959,64.6595 97.7026,64.6595 C 95.6543,64.6591 93.8432,65.6351 92.0708,67.2605 L 93.0095,64.8545 L 89.4973,64.8545 C 89.3972,65.2763 89.2977,65.6995 89.1329,66.1224 C 88.8666,66.8046 88.6647,67.4883 88.4311,68.1715 C 88.3806,68.3011 88.3175,68.4639 88.2664,68.5936 L 82.2052,84.1378 C 82.1547,84.2675 82.1168,84.3655 82.0657,84.4955 C 81.5703,85.6012 81.1257,86.7396 80.5322,87.8447 L 80.5322,87.8447 z M 90.6437,70.8375 C 91.4167,68.854 93.2112,66.8376 95.4553,66.8376 C 98.7066,66.8376 97.572,71.0005 96.6208,73.4398 C 95.632,75.976 93.2312,80.4632 89.8489,80.4632 C 88.8734,80.463 87.9327,80.0411 87.8004,79.1301 C 87.6871,78.2523 88.2338,77.0164 88.6145,76.0408 L 90.6437,70.8375 L 90.6437,70.8375 z "
         style="fill:#acacac;fill-opacity:1"
         id="path1046" />
      <path
         d="M 101.819,73.179 C 100.0186,77.7968 101.3389,81.6665 106.2162,81.6665 C 111.1921,81.6665 115.6441,77.5045 117.4574,72.8537 C 119.3595,67.9764 118.1732,64.4316 113.0349,64.4316 C 107.9619,64.4314 103.6833,68.3993 101.819,73.179 z M 112.1967,65.8294 C 115.6441,65.8294 114.4787,70.9031 113.477,73.4715 C 112.526,75.9108 110.3389,80.2682 107.0227,80.2682 C 103.4453,80.268 104.7176,74.8374 105.7443,72.203 C 106.7209,69.6996 109.0102,65.8294 112.1967,65.8294 L 112.1967,65.8294 z "
         style="fill:#acacac;fill-opacity:1"
         id="path1048" />
      <path
         d="M 120.601,64.8545 C 120.7745,65.9926 120.6522,67.3911 120.5283,68.6264 L 119.2049,81.2762 L 122.1642,81.2762 L 129.7508,69.9921 L 128.4726,81.2762 L 131.3674,81.2762 L 140.2347,68.6262 C 140.837,67.7486 141.4845,66.8376 142.1715,65.9926 C 142.4868,65.6023 142.8214,65.2448 143.1686,64.8545 L 140.3718,64.8545 C 140.3102,65.1792 140.2486,65.5045 140.1217,65.8294 C 139.7546,66.7728 139.0808,67.7486 138.4785,68.6264 L 132.1909,77.8292 L 133.3341,67.9764 C 133.4121,67.3583 133.5108,66.7731 133.7511,66.1552 C 133.9292,65.6995 134.1391,65.2448 134.5515,64.8545 L 129.9659,64.8545 L 129.9474,64.9842 C 129.7834,66.1548 129.816,66.7405 129.4318,67.9764 C 129.4194,68.0081 129.2989,68.3993 129.2989,68.3993 L 122.961,77.732 L 123.9099,68.6262 C 124.0212,67.4235 124.1383,66.1224 124.5025,64.8545 L 120.601,64.8545 L 120.601,64.8545 z "
         style="fill:#acacac;fill-opacity:1"
         id="path1050" />
      <path
         d="M 149.589,79.1301 L 151.0119,76.9838 C 149.2871,78.1543 146.9426,79.1627 145.1866,79.1627 C 141.5449,79.1625 141.707,75.911 142.9246,72.7891 C 143.1909,72.1058 143.5091,71.4558 143.8735,70.7728 L 151.7101,70.7725 C 152.3608,70.7725 153.3904,70.9677 153.7711,69.9921 C 154.9753,66.9026 152.9023,64.4644 149.9428,64.4644 C 145.1303,64.4644 140.8687,68.8868 139.1571,73.2766 C 137.4324,77.6994 138.5636,81.4714 143.2784,81.4714 C 145.4247,81.4711 147.49,80.5938 149.589,79.1301 L 149.589,79.1301 z M 149.371,65.7647 C 150.736,65.7647 151.4956,66.903 150.9503,68.3013 C 150.4942,69.472 149.5199,69.6346 148.5443,69.6346 L 144.447,69.6344 C 145.4575,67.8784 147.2898,65.7649 149.371,65.7647 L 149.371,65.7647 z "
         style="fill:#acacac;fill-opacity:1"
         id="path1052" />
      <path
         d="M 151.049,81.2762 L 154.9193,81.2762 C 155.0247,80.1709 155.4556,79.0655 155.8993,77.9267 L 158.5493,71.1301 C 158.9937,69.9921 160.2498,67.5209 161.8433,67.5209 C 162.5587,67.5207 163.1023,67.8786 163.4903,68.3013 C 163.802,67.5854 164.1261,66.8376 164.4897,66.1552 C 164.828,65.5369 165.1996,64.919 165.5254,64.3344 L 165.1679,64.3342 C 163.6714,64.3342 161.258,66.1878 160.0658,67.3257 L 161.0302,64.8545 L 157.4528,64.8545 C 157.314,65.96 156.9157,67.0654 156.4713,68.2041 L 152.6676,77.9589 C 152.2241,79.0971 151.7402,80.1709 151.049,81.2762 L 151.049,81.2762 z "
         style="fill:#acacac;fill-opacity:1"
         id="path1054" />
      <path
         d="M 95.2921,92.0871 C 95.8368,92.3477 96.4242,92.5769 97.1215,92.5769 C 98.4445,92.5767 100.2405,91.7645 100.8125,90.2956 C 101.6659,88.108 98.1402,88.2026 98.8103,86.4837 C 99.119,85.6919 99.9602,85.2448 100.6992,85.2448 C 101.366,85.2446 101.8415,85.5468 102.2371,85.9213 L 102.4842,85.0463 C 102.2556,85.0463 102.0775,84.9947 101.8794,84.9422 C 101.5309,84.8486 101.1301,84.8071 100.7347,84.8071 C 99.5158,84.8067 98.0017,85.4317 97.4658,86.8065 C 97.1775,87.5461 97.4109,88.2026 97.894,88.5669 L 98.4334,88.9723 C 98.6197,89.1084 98.8029,89.2539 98.9852,89.4001 C 99.2309,89.598 99.4935,89.806 99.532,90.1605 C 99.5469,90.337 99.5194,90.5145 99.4422,90.7124 C 99.1057,91.5765 98.1892,92.056 97.3874,92.056 C 96.6372,92.056 96.066,91.7325 95.686,91.2644 L 95.2921,92.0871 L 95.2921,92.0871 z "
         style="fill:#acacac;fill-opacity:1"
         id="path1056" />
      <path
         d="M 111.016,87.1608 L 110.0476,87.1608 C 110.0446,87.2752 110.0282,87.3688 109.9838,87.4838 C 109.9231,87.6395 109.816,87.8064 109.6974,87.9526 L 107.3494,90.8474 L 107.35,87.7751 C 107.3441,87.6289 107.4005,87.4319 107.4613,87.2752 C 107.4777,87.2334 107.5006,87.2027 107.517,87.161 L 105.9444,87.1608 C 106.0859,87.41 106.1297,87.5669 106.1385,87.8895 L 106.2596,91.5868 C 106.2611,91.7428 106.2439,91.9203 106.1793,92.0871 C 106.1223,92.2324 105.9724,92.4307 105.867,92.5666 C 105.4479,93.1071 104.7743,93.8469 104.0969,93.8469 C 103.7846,93.8467 103.654,93.7016 103.404,93.7016 C 103.1333,93.7014 102.8164,93.8988 102.7072,94.18 C 102.5449,94.597 102.9951,94.6698 103.3179,94.6698 C 104.401,94.6696 105.4329,93.7327 106.1787,92.8366 L 110.3979,87.7856 C 110.6093,87.5356 110.7413,87.3585 111.016,87.1608 L 111.016,87.1608 z "
         style="fill:#acacac;fill-opacity:1"
         id="path1058" />
      <path
         d="M 113.114,91.4303 L 112.9353,92.3163 C 113.3159,92.4614 113.7416,92.5449 114.1992,92.5449 C 115.2202,92.5445 116.4465,92.0976 116.9013,90.9307 C 117.5268,89.3271 115.1081,89.3065 115.5392,88.2026 C 115.71,87.7646 116.2069,87.5045 116.6126,87.5045 C 117.0713,87.5042 117.5711,87.7442 117.8487,87.9942 L 118.0142,87.2231 C 117.6351,87.2855 117.1371,87.0668 116.6898,87.0668 C 115.8257,87.0664 114.6972,87.5564 114.3195,88.5255 C 113.7386,90.014 116.1268,90.0871 115.6431,91.3267 C 115.4606,91.7954 114.9613,92.0871 114.5138,92.0871 C 113.9517,92.0871 113.3876,91.7956 113.114,91.4303 L 113.114,91.4303 z "
         style="fill:#acacac;fill-opacity:1"
         id="path1060" />
      <path
         d="M 122.335,87.6081 L 122.9394,87.6081 L 121.6359,90.9513 C 121.5663,91.1286 121.4913,91.2955 121.4223,91.4722 C 121.1665,92.1285 121.3392,92.5138 122.0157,92.5138 C 122.3699,92.5138 122.8601,92.3788 123.2161,92.1599 L 123.4855,91.5765 C 123.2822,91.722 123.0611,91.8373 122.8422,91.8373 C 122.4254,91.8368 122.4557,91.4936 122.5936,91.1391 L 123.9701,87.6081 L 124.8342,87.6081 L 125.0302,87.1608 L 124.1347,87.1608 L 124.7608,85.6605 L 123.5619,85.9836 L 123.1034,87.1608 L 122.5099,87.1608 L 122.335,87.6081 z "
         style="fill:#acacac;fill-opacity:1"
         id="path1062" />
      <path
         d="M 131.594,91.7325 L 132.0495,91.0455 C 131.4968,91.4198 130.746,91.7431 130.1835,91.7431 C 129.0174,91.7428 129.0693,90.7021 129.4594,89.7021 C 129.5448,89.4832 129.6464,89.2748 129.7629,89.0565 L 132.2736,89.0563 C 132.4812,89.0563 132.8114,89.1189 132.9329,88.8066 C 133.319,87.8167 132.6549,87.0357 131.7067,87.0357 C 130.1658,87.0357 128.8007,88.4519 128.2525,89.8586 C 127.7005,91.2747 128.0626,92.4827 129.573,92.4827 C 130.26,92.4825 130.9218,92.2015 131.594,91.7325 L 131.594,91.7325 z M 131.5235,87.4525 C 131.9613,87.4525 132.2045,87.817 132.0293,88.2649 C 131.8833,88.6394 131.5717,88.6916 131.2594,88.6916 L 129.9471,88.6916 C 130.2705,88.129 130.8573,87.4527 131.5235,87.4525 z "
         style="fill:#acacac;fill-opacity:1"
         id="path1064" />
      <path
         d="M 136.128,92.4202 L 137.3573,92.4202 C 137.3869,92.0768 137.5249,91.7222 137.663,91.3683 L 138.6178,88.9206 C 138.7396,88.6085 138.8203,88.348 139.1259,88.0981 C 139.4464,87.8374 139.8173,87.7131 140.1513,87.7131 C 140.6819,87.7129 140.9139,87.9734 140.7692,88.5046 C 140.6634,88.9101 140.4903,89.3273 140.3315,89.7332 C 140.1372,90.2331 139.9353,90.7229 139.741,91.2221 C 139.586,91.6181 139.4241,92.0354 139.1696,92.4204 L 140.3879,92.4202 C 140.4236,92.0349 140.5948,91.6495 140.7492,91.2541 C 140.9282,90.7952 141.1275,90.3372 141.3063,89.8794 C 141.4318,89.5566 141.5372,89.2331 141.6625,88.9105 C 141.7851,88.598 141.8939,88.3168 142.2064,88.0773 C 142.5187,87.8374 142.9008,87.7131 143.2234,87.7131 C 143.5359,87.7129 143.8496,87.817 143.8814,88.1084 C 143.9089,88.3581 143.6299,88.9942 143.5306,89.2748 C 143.4475,89.5141 143.3502,89.7643 143.2671,90.0039 C 142.9756,90.8055 142.6381,91.6183 142.325,92.4204 L 143.4497,92.4202 C 143.4707,92.1807 143.5388,91.9515 143.6366,91.7014 L 144.2332,90.1708 C 144.4402,89.6396 144.6641,89.1189 144.8713,88.5877 C 144.993,88.275 145.119,87.9526 145.0477,87.6819 C 144.9285,87.213 144.5039,87.046 143.9727,87.046 C 143.3066,87.046 142.6877,87.296 142.0238,87.7442 C 141.8896,87.2334 141.5082,87.0357 140.9042,87.0357 C 140.3109,87.0357 139.7217,87.2649 139.1238,87.65 L 139.3145,87.1608 L 138.1896,87.1608 C 138.0979,87.5564 137.9642,87.9526 137.806,88.3585 L 136.6037,91.4409 C 136.4782,91.7643 136.3127,92.1079 136.128,92.4202 L 136.128,92.4202 z "
         style="fill:#acacac;fill-opacity:1"
         id="path1066" />
      <path
         d="M 148.34,91.4303 L 148.1612,92.3163 C 148.5418,92.4614 148.9675,92.5449 149.4259,92.5449 C 150.447,92.5445 151.6732,92.0976 152.1281,90.9307 C 152.7535,89.3271 150.3349,89.3065 150.7651,88.2026 C 150.9359,87.7646 151.4328,87.5045 151.8393,87.5045 C 152.2972,87.5042 152.7979,87.7442 153.0755,87.9942 L 153.2402,87.2231 C 152.8618,87.2855 152.3638,87.0668 151.9159,87.0668 C 151.0516,87.0664 149.9231,87.5564 149.5454,88.5255 C 148.9654,90.014 151.3527,90.0871 150.8699,91.3267 C 150.6865,91.7954 150.1879,92.0871 149.7399,92.0871 C 149.1776,92.0871 148.6144,91.7956 148.34,91.4303 L 148.34,91.4303 z "
         style="fill:#acacac;fill-opacity:1"
         id="path1068" />
      <path
         d="M 39.5798,64.7047 L 58.5382,64.7047 L 55.8615,71.0512 L 43.4546,71.0512 C 44.1328,69.5589 44.0037,68.0849 43.4414,66.9089 C 42.9034,65.7838 41.5131,65.0452 39.5798,64.7047 L 39.5798,64.7047 z "
         style="fill:#acacac;fill-opacity:1"
         id="path1070" />
      <path
         d="M 39.3491,74.9426 L 54.2203,74.9426 L 51.5442,81.2905 L 36.9588,81.2905 C 35.8199,79.5652 34.7803,78.406 33.6327,76.9594 C 36.0039,76.4115 37.8823,75.7196 39.3491,74.9426 L 39.3491,74.9426 z "
         style="fill:#acacac;fill-opacity:1"
         id="path1072" />
      <path
         d="M 125.59375,228.5 C 124.5726,228.4966 123.55159,228.52359 122.53125,228.5625 C 126.49547,230.35906 130.33101,232.82218 132.9375,236.375 C 134.19131,238.11467 134.92878,240.19919 135.03125,242.34375 C 135.38748,246.59165 134.043,250.90197 131.46875,254.28125 C 128.23536,258.6471 123.61741,261.7255 118.84375,264.1875 C 112.25167,267.567 102.00251,270.58359 98,271.65625 C 95.998747,272.19258 95.519759,272.35228 95.4375,272.40625 C 95.462743,272.42457 95.525082,272.44677 95.15625,272.5625 C 100.32563,276.83575 107.67276,282.89374 110.53125,285.5625 C 111.00687,286.00655 111.26791,286.25221 111.59375,286.53125 C 111.59924,286.53634 111.61952,286.52616 111.625,286.53125 C 111.86605,286.75133 112.10466,286.94324 112.34375,287.15625 L 112.21875,287.15625 C 114.26182,289.11853 116.32428,291.22152 118.28125,293.4375 C 134.37211,311.66569 154.55476,336.68396 158.125,341.1875 L 160.53125,341.3125 C 154.88499,332.72141 141.00128,309.31156 130.8125,294.90625 C 128.85471,292.13672 127.17034,289.77419 125.59375,287.59375 C 125.41114,287.30747 125.26485,287.05241 125.0625,286.75 C 125.01058,286.6784 124.95842,286.6029 124.90625,286.53125 C 121.70185,282.1298 118.02501,277.63466 114.0625,273.90625 C 113.72082,273.54559 112.91627,273.05575 113.84375,273.03125 C 121.96144,270.95929 129.96817,268.05806 136.96875,263.375 C 141.63495,260.23395 145.89407,256.1973 148.34375,251.0625 C 150.12716,247.31374 150.78048,242.91128 149.5,238.90625 C 148.86564,236.76022 147.55301,234.81049 145.75,233.46875 C 142.57163,230.99924 138.59416,229.89026 134.6875,229.21875 C 131.6834,228.71736 128.63787,228.49661 125.59375,228.5 z "
         transform="matrix(0.2822222,0,0,0.2822222,-1.3919578e-6,0)"
         style="fill:url(#linearGradient13692);fill-opacity:1"
         id="path6111" />
      <path
         d="M 141.125,305.4375 C 141.13184,305.44966 141.14941,305.45658 141.15625,305.46875 C 145.36712,312.94725 150.01271,320.81006 154,327.90625 C 154.00425,327.9138 153.99576,327.92995 154,327.9375 L 169.5,327.9375 L 169.5,327.90625 L 178.96875,305.46875 L 179,305.4375 L 141.125,305.4375 z "
         transform="matrix(0.2822222,0,0,0.2822222,-1.3919578e-6,0)"
         style="fill:#e5e5e5;fill-opacity:1"
         id="path2100" />
      <path
         d="M 39.2147,85.1806 L 49.9041,85.1806 L 47.2272,91.5283 L 42.847,91.5283 C 41.7186,89.5217 40.4048,87.2969 39.2147,85.1806 L 39.2147,85.1806 z "
         style="fill:#acacac;fill-opacity:1"
         id="path2616" />
    </g>
  </g>
</svg>
